<?xml version="1.0" encoding="UTF-8"?>
<svg width="1175px" height="218px" viewBox="0 0 1175 218" version="1.1" xmlns="http://www.w3.org/2000/svg" xmlns:xlink="http://www.w3.org/1999/xlink">
    <!-- Generator: Sketch 59.1 (86144) - https://sketch.com -->
    <title>COUPLEDOM</title>
    <desc>Created with Sketch.</desc>
    <g id="Page-1" stroke="none" stroke-width="1" fill="none" fill-rule="evenodd">
        <path d="M56.390304,218 C79.1212192,218 96.870016,208.035763 105.900106,189.975584 L106.322289,189.095116 C112.452673,176.071143 112.750518,164.726235 112.750518,163.50808 L112.750518,149.807254 L81.6122784,149.807254 L81.6122784,163.50808 C81.6122784,168.490198 78.4984544,190.909731 56.390304,190.909731 C34.5032351,190.909731 30.9273196,168.631161 30.85799,163.653579 L30.8569472,54.52424 C30.8569472,49.853504 34.2821536,27.4339712 56.390304,27.4339712 C78.4984544,27.4339712 81.6122784,49.5421216 81.6122784,54.52424 L81.6122784,68.2250656 L112.750518,68.2250656 L112.748211,54.2993947 C112.711111,52.2354797 112.151706,40.8576322 105.900106,28.056736 C96.870016,9.9965568 79.1212192,0.03232 56.390304,0.03232 C33.6593888,0.03232 15.910592,9.9965568 6.8805024,28.056736 C0.341472,41.4461792 0.0300896,53.2787104 0.0300896,54.52424 L0.0338911238,163.807774 C0.0831084605,166.058588 0.700759385,177.321824 6.8805024,189.975584 C15.910592,208.035763 33.6593888,218 56.390304,218 Z M187.155912,218 C209.886827,218 227.635624,208.035763 236.665714,189.975584 C243.204744,176.586141 243.516126,164.75361 243.516126,163.50808 L243.512325,54.2245456 C243.463108,51.973732 242.845457,40.7104955 236.665714,28.056736 C227.635624,9.9965568 209.886827,0.03232 187.155912,0.03232 C164.424997,0.03232 146.6762,9.9965568 137.64611,28.056736 C131.322652,41.004769 130.822997,52.4968514 130.796925,54.3668606 L130.796925,163.665459 C130.822997,165.535469 131.322652,177.027551 137.64611,189.975584 C146.6762,208.035763 164.424997,218 187.155912,218 Z M161.622555,163.50808 L161.622555,54.52424 L161.626788,54.2230186 C161.767037,48.9656905 165.489925,27.4339712 187.155912,27.4339712 C209.042981,27.4339712 212.31371,49.1021694 212.376936,54.3696779 L212.377886,163.50808 C212.377886,168.490198 209.264062,190.909731 187.155912,190.909731 C165.047762,190.909731 161.622555,168.178816 161.622555,163.50808 Z M318.108349,218 C340.839265,218 358.588061,208.035763 367.618151,189.975584 L368.040334,189.095116 C374.170718,176.071143 374.468564,164.726235 374.468564,163.50808 L374.468564,0.03232 L343.330324,0.03232 L343.330324,163.50808 C343.330324,168.490198 340.2165,190.909731 318.108349,190.909731 C296.000199,190.909731 292.574993,168.178816 292.574993,163.50808 L292.574993,0.03232 L261.748135,0.03232 L261.751937,163.807774 C261.801154,166.058588 262.418805,177.321824 268.598548,189.975584 C277.628637,208.035763 295.377434,218 318.108349,218 Z M478.517562,7.81688 C465.439501,0.3437024 451.738676,0.03232 450.181764,0.03232 L393.821549,0.03232 L393.821549,218 L424.648407,218 L424.648407,122.716986 L450.320266,122.716129 C453.609835,122.680242 506.541978,121.184984 506.541978,61.3746528 C506.541978,30.8591776 490.972858,15.2900576 478.517562,7.81688 Z M463.571207,90.9559808 C456.720794,95.003952 450.493146,95.3153344 450.181764,95.3153344 L424.648407,95.3153344 L424.648407,27.4339712 L450.34347,27.4376399 C451.335596,27.4718814 456.760972,27.8257103 462.948442,31.4819424 C471.355767,36.4640608 475.403738,46.1169152 475.403738,61.3746528 C475.403738,76.0096256 471.667149,85.9738624 463.571207,90.9559808 Z M555.414015,190.909731 L555.414015,0.03232 L524.587157,0.03232 L524.587157,218 L609.905935,218 L609.905935,190.909731 L555.414015,190.909731 Z M726.970717,27.4339712 L726.970717,0.03232 L627.951114,0.03232 L627.951114,218 L726.970717,218 L726.970717,190.909731 L658.777972,190.909731 L658.777972,122.716986 L709.533303,122.716986 L709.533303,95.3153344 L658.777972,95.3153344 L658.777972,27.4339712 L726.970717,27.4339712 Z M745.015896,0.03232 L745.015896,218 L801.684745,217.996341 C804.075175,217.948679 816.704925,217.350158 828.777762,211.46097 C847.460706,202.119498 857.736325,184.993466 857.736325,163.50808 L857.734018,54.2993947 C857.696918,52.2354797 857.137513,40.8576322 850.885912,28.056736 C841.855823,9.9965568 824.107026,0.03232 801.376111,0.03232 L745.015896,0.03232 Z M775.842754,27.4339712 L801.376111,27.4339712 C823.484261,27.4339712 826.598085,49.5421216 826.598085,54.52424 L826.598085,163.50808 C826.598085,177.83167 815.699701,190.909731 800.130581,190.909731 L775.842754,190.909731 L775.842754,27.4339712 Z M932.141719,218 C954.872634,218 972.621431,208.035763 981.65152,189.975584 L982.073704,189.095116 C988.204087,176.071143 988.501933,164.726235 988.501933,163.50808 L988.498132,54.2245456 C988.448914,51.973732 987.831263,40.7104955 981.65152,28.056736 C972.621431,9.9965568 954.872634,0.03232 932.141719,0.03232 C909.410804,0.03232 891.662007,9.9965568 882.631917,28.056736 C876.308459,41.004769 875.808803,52.4968514 875.782732,54.3668606 L875.782732,163.732925 C875.820911,165.79684 876.380317,177.174688 882.631917,189.975584 C891.662007,208.035763 909.410804,218 932.141719,218 Z M906.608362,163.50808 L906.608362,54.52424 L906.612594,54.2230186 C906.752843,48.9656905 910.475731,27.4339712 932.141719,27.4339712 C954.249869,27.4339712 957.363693,49.5421216 957.363693,54.52424 L957.363693,163.50808 C957.363693,168.490198 954.249869,190.909731 932.141719,190.909731 C910.033568,190.909731 906.608362,168.178816 906.608362,163.50808 Z M1132.78154,0.03232 L1174.50678,0.03232 L1174.50678,218 L1143.36854,218 L1143.36854,84.7283328 C1132.15877,129.567398 1120.94901,173.160934 1110.05062,218 L1071.4392,218 L1038.12129,84.7283328 L1038.12129,218 L1007.29443,218 L1007.29443,0.03232 L1049.01967,0.03232 L1090.74491,167.867434 L1132.78154,0.03232 Z" id="COUPLEDOM" fill="#FFFFFF" fill-rule="nonzero"></path>
    </g>
</svg>