<svg xmlns="http://www.w3.org/2000/svg" viewBox="0 0 14.88 14.88"><defs><style>.cls-1{fill:#005851;}</style></defs><g id="Layer_2" data-name="Layer 2"><g id="Wireframe"><path class="cls-1" d="M10.3,0H4.58A4.58,4.58,0,0,0,0,4.59V10.3a4.58,4.58,0,0,0,4.58,4.58H10.3a4.58,4.58,0,0,0,4.58-4.58V4.59A4.58,4.58,0,0,0,10.3,0Zm3.15,9.75a3.7,3.7,0,0,1-3.7,3.7H5.13a3.7,3.7,0,0,1-3.7-3.7V5.13a3.7,3.7,0,0,1,3.7-3.7H9.75a3.7,3.7,0,0,1,3.7,3.7Z"/><path class="cls-1" d="M7.64,3.55a3.92,3.92,0,1,0,3.92,3.92A3.91,3.91,0,0,0,7.64,3.55Zm0,6.27A2.36,2.36,0,1,1,10,7.47,2.36,2.36,0,0,1,7.64,9.82Z"/><path class="cls-1" d="M12.28,3.49a1,1,0,0,1-2,0,1,1,0,1,1,2,0Z"/></g></g></svg>