<?xml version="1.0" encoding="utf-8"?>
<!-- Generator: Adobe Illustrator 24.3.0, SVG Export Plug-In . SVG Version: 6.00 Build 0)  -->
<svg version="1.1" id="Layer_1" xmlns="http://www.w3.org/2000/svg" xmlns:xlink="http://www.w3.org/1999/xlink" x="0px" y="0px"
	 viewBox="0 0 14.9 14.9" style="enable-background:new 0 0 14.9 14.9;" xml:space="preserve">
<g id="Layer_2_1_">
	<g id="Wireframe">
		<path d="M10.3,0H4.6C2.1,0,0,2.1,0,4.6c0,0,0,0,0,0v5.7c0,2.5,2.1,4.6,4.6,4.6l0,0h5.7c2.5,0,4.6-2.1,4.6-4.6l0,0V4.6
			C14.9,2.1,12.8,0,10.3,0C10.3,0,10.3,0,10.3,0z M13.5,9.8c0,2-1.7,3.7-3.7,3.7H5.1c-2,0-3.7-1.7-3.7-3.7V5.1c0-2,1.7-3.7,3.7-3.7
			h4.6c2,0,3.7,1.7,3.7,3.7L13.5,9.8z"/>
		<path d="M7.6,3.5c-2.2,0-3.9,1.8-3.9,3.9s1.8,3.9,3.9,3.9s3.9-1.8,3.9-3.9c0,0,0,0,0,0C11.6,5.3,9.8,3.6,7.6,3.5
			C7.7,3.5,7.6,3.5,7.6,3.5z M7.6,9.8c-1.3,0-2.4-1.1-2.4-2.4c0-1.3,1.1-2.4,2.4-2.4S10,6.2,10,7.5c0,0,0,0,0,0
			C10,8.8,8.9,9.8,7.6,9.8z M12.3,3.5c0,0.6-0.4,1-1,1s-1-0.4-1-1s0.4-1,1-1S12.3,2.9,12.3,3.5z"/>
	</g>
</g>
</svg>
