<svg xmlns="http://www.w3.org/2000/svg" viewBox="0 0 14.88 14.88"><defs><style>.cls-1{fill:#005851}</style></defs><g id="Layer_2" data-name="Layer 2"><g id="Wireframe"><path d="M10.3 0H4.58A4.58 4.58 0 0 0 0 4.59v5.71a4.58 4.58 0 0 0 4.58 4.58h5.72a4.58 4.58 0 0 0 4.58-4.58V4.59A4.58 4.58 0 0 0 10.3 0zm3.15 9.75a3.7 3.7 0 0 1-3.7 3.7H5.13a3.7 3.7 0 0 1-3.7-3.7V5.13a3.7 3.7 0 0 1 3.7-3.7h4.62a3.7 3.7 0 0 1 3.7 3.7z" class="cls-1"/><path d="M7.64 3.55a3.92 3.92 0 103.92 3.92 3.91 3.91 0 00-3.92-3.92zm0 6.27A2.36 2.36 0 1110 7.47a2.36 2.36 0 01-2.36 2.35zM12.28 3.49a1 1 0 01-2 0 1 1 0 112 0z" class="cls-1"/></g></g></svg>