<?xml version="1.0" encoding="utf-8"?>
<!-- Generator: Adobe Illustrator 24.3.0, SVG Export Plug-In . SVG Version: 6.00 Build 0)  -->
<svg version="1.1" id="Layer_1" xmlns="http://www.w3.org/2000/svg" xmlns:xlink="http://www.w3.org/1999/xlink" x="0px" y="0px"
	 viewBox="0 0 14.7 12.4" style="enable-background:new 0 0 14.7 12.4;" xml:space="preserve">
<style type="text/css">
	.st0{fill:#231F20;}
</style>
<g id="Layer_2_1_">
	<g id="artwork">
		<path class="st0" d="M13.8,1h-1.5V0.3c0-0.2-0.1-0.3-0.3-0.3H0.3C0.1,0,0,0.1,0,0.3c0,0,0,0,0,0v10.6c0,0.8,0.7,1.5,1.5,1.5
			c0,0,0,0,0,0h11.8c0.8,0,1.5-0.7,1.5-1.5l0,0v-9C14.7,1.4,14.3,1,13.8,1z M13.1,1.6c0,0.1-0.1,0.2-0.1,0.3v8.7h-0.6v-9L13.1,1.6z
			 M1.5,11.8c-0.5,0-0.9-0.4-0.9-0.9c0,0,0,0,0,0V0.6h11.2v10.3c0,0.3,0.1,0.6,0.3,0.9H1.5z M14.1,10.9c0,0.5-0.4,0.9-0.9,0.9
			c0,0,0,0,0,0c-0.4,0-0.7-0.3-0.8-0.6h0.8c0.2,0,0.3-0.1,0.3-0.3c0,0,0,0,0,0v-9c0-0.2,0.2-0.3,0.3-0.2c0.1,0,0.2,0.1,0.2,0.2V10.9
			z"/>
		<path class="st0" d="M5.4,9.4c0.2,0,0.3-0.1,0.3-0.3V3.5c0-0.2-0.1-0.3-0.3-0.3H1.9c-0.2,0-0.3,0.1-0.3,0.3v5.6
			c0,0.2,0.1,0.3,0.3,0.3H5.4z M2.2,3.8h2.9v5H2.2V3.8z"/>
		<path class="st0" d="M1.9,1.6c-0.2,0-0.3,0.1-0.3,0.3s0.1,0.3,0.3,0.3h8.6c0.2,0,0.3-0.1,0.3-0.3c0-0.2-0.1-0.3-0.3-0.3
			c0,0,0,0,0,0L1.9,1.6z"/>
		<path class="st0" d="M6.6,3C6.4,3,6.3,3.1,6.3,3.3c0,0.2,0.1,0.3,0.3,0.3h3.9c0.2,0,0.3-0.1,0.3-0.3c0-0.2-0.1-0.3-0.3-0.3
			c0,0,0,0,0,0H6.6z"/>
		<path class="st0" d="M6.6,4.4c-0.2,0-0.3,0.1-0.3,0.3C6.3,4.9,6.4,5,6.6,5h3.9c0.2,0,0.3-0.1,0.3-0.3c0-0.2-0.1-0.3-0.3-0.3
			c0,0,0,0,0,0H6.6z"/>
		<path class="st0" d="M6.6,5.9C6.4,5.9,6.3,6,6.3,6.2c0,0.2,0.1,0.3,0.3,0.3h3.9c0.2,0,0.3-0.1,0.3-0.3c0-0.2-0.1-0.3-0.3-0.3H6.6z
			"/>
		<path class="st0" d="M6.6,7.3c-0.2,0-0.3,0.2-0.2,0.3c0,0.1,0.1,0.2,0.2,0.2h3.9c0.2,0,0.3-0.2,0.2-0.3c0-0.1-0.1-0.2-0.2-0.2H6.6
			z"/>
		<path class="st0" d="M6.6,8.8c-0.2,0-0.3,0.2-0.2,0.3c0,0.1,0.1,0.2,0.2,0.2h3.9c0.2,0,0.3-0.2,0.2-0.3c0-0.1-0.1-0.2-0.2-0.2H6.6
			z"/>
		<path class="st0" d="M1.9,10.2c-0.2,0-0.3,0.1-0.3,0.3c0,0.2,0.1,0.3,0.3,0.3h8.6c0.2,0,0.3-0.1,0.3-0.3c0-0.2-0.1-0.3-0.3-0.3
			c0,0,0,0,0,0H1.9z"/>
	</g>
</g>
</svg>
