<svg xmlns="http://www.w3.org/2000/svg" viewBox="0 0 22.16 25.6"><defs><style>.cls-1{fill:#004c45;fill-rule:evenodd;}</style></defs><g id="Layer_2" data-name="Layer 2"><g id="Artwork"><path class="cls-1" d="M18.16,0A4,4,0,0,1,21,1.17h0A3.94,3.94,0,0,1,22.16,4a4,4,0,0,1-6.83,2.84h0l-.15-.15L7.68,11.2A4.05,4.05,0,0,1,8,12.8a3.92,3.92,0,0,1-.26,1.41l7.47,4.66.11-.11a4,4,0,0,1,5.66,0h0a3.94,3.94,0,0,1,1.17,2.82,4,4,0,0,1-6.83,2.83h0a4,4,0,0,1-.91-4.26L7,15.5l-.12.13A4,4,0,0,1,4,16.8a4,4,0,0,1-2.82-1.17h0A4,4,0,0,1,6.81,10L14.4,5.38A3.93,3.93,0,0,1,14.15,4a4,4,0,0,1,4-4ZM6.06,11.4l0-.06a1.87,1.87,0,0,0-.26-.3h0a2.49,2.49,0,0,0-3.51,3.52A2.51,2.51,0,0,0,4,15.28,2.48,2.48,0,0,0,6.06,11.4ZM16,5.27h0v0a2.54,2.54,0,0,0,.36.45A2.49,2.49,0,0,0,20.64,4a2.51,2.51,0,0,0-.72-1.75h0a2.44,2.44,0,0,0-1.75-.73A2.49,2.49,0,0,0,16,5.27Zm3.89,14.56a2.49,2.49,0,1,0,.73,1.76,2.47,2.47,0,0,0-.73-1.76Z"/></g></g></svg>