<svg xmlns="http://www.w3.org/2000/svg" viewBox="0 0 368.12 64.05"><defs><style>.cls-1{fill:#231f20}.cls-2{fill:#d0d2d3}</style></defs><g id="Layer_2" data-name="Layer 2"><g id="Wireframe"><path d="M0 34.39V5.21h10.39v29.18zm0 29.19V44.12h10.39v19.46zm20.77-38.91V5.21h10.39v19.46zm0 38.91V34.39h10.39v29.19zM82.52 22.1h-8.34v-1.88a8.85 8.85 0 00-1.35-4.94c-.9-1.4-2.41-2.09-4.54-2.09a5.32 5.32 0 00-2.78.65 5.51 5.51 0 00-1.72 1.64 7.17 7.17 0 00-.9 2.41 16.09 16.09 0 00-.24 2.82 28.1 28.1 0 00.12 2.86 5.52 5.52 0 00.61 2.05 4.57 4.57 0 001.43 1.55 13.29 13.29 0 002.58 1.31L73.77 31a16.09 16.09 0 014.5 2.5A10.75 10.75 0 0181 36.82a15.5 15.5 0 011.23 4.46 43.59 43.59 0 01.29 5.72 30 30 0 01-.74 6.83 14.33 14.33 0 01-2.37 5.35 11.65 11.65 0 01-4.5 3.6 15.86 15.86 0 01-6.78 1.31A14.87 14.87 0 0162.48 63 13.16 13.16 0 0158 60a14.27 14.27 0 01-3-4.37 13.39 13.39 0 01-1.1-5.44v-3.07h8.34v2.62a6.81 6.81 0 001.35 4.13q1.35 1.85 4.54 1.84a7.46 7.46 0 003.31-.61 4.46 4.46 0 001.84-1.76 6.56 6.56 0 00.77-2.74c.09-1.06.13-2.25.13-3.56a34.66 34.66 0 00-.18-3.76 6.44 6.44 0 00-.65-2.37 4.61 4.61 0 00-1.51-1.47 20.14 20.14 0 00-2.5-1.23l-6-2.45c-3.59-1.48-6-3.42-7.23-5.85a20 20 0 01-1.84-9.12 21.1 21.1 0 01.9-6.21 14.18 14.18 0 012.7-5.07 12.23 12.23 0 014.37-3.39 14.52 14.52 0 016.34-1.27A13.89 13.89 0 0174.3 6a14.9 14.9 0 014.46 3 12.66 12.66 0 013.76 9zM88.24 63.56l13-58.22h7l13 58.22h-8.34l-2.5-12.51H99l-2.42 12.51zm20.6-20.36l-4.08-21.1h-.17l-4.09 21.1zM127.49 63.56V5.34h12.18a17.05 17.05 0 016.83 1.23 12.83 12.83 0 014.62 3.27 12.21 12.21 0 012.57 4.7 19.48 19.48 0 01.78 5.52v2.12a18.24 18.24 0 01-.37 4 9.52 9.52 0 01-1.1 2.86 11.53 11.53 0 01-4.25 3.96 9 9 0 014.33 4.09 16.14 16.14 0 011.39 7.35v3.27q0 7.7-3.72 11.78t-11.9 4.09zm8.34-50.37v16h3.76q4.17 0 5.6-2.09a10.79 10.79 0 001.43-6.1q0-3.93-1.59-5.89t-5.77-2zm0 23.38v18.65h3.6a8.78 8.78 0 004-.74 5.1 5.1 0 002.17-2 7.72 7.72 0 00.9-3.11c.11-1.2.16-2.51.16-3.92a26.85 26.85 0 00-.24-3.85 7 7 0 00-1-2.78 4.67 4.67 0 00-2.2-1.67 10.4 10.4 0 00-3.68-.54zM160.68 63.56V5.34h8.34v49.88h16.52v8.34h-24.86zM191.92 63.56V5.34h24.85v7.85h-16.51v17.09h14.39v7.85h-14.39v17.09h16.51v8.34h-24.85z" class="cls-1"/><path d="M235.74 63.56V5.34h8.34v49.88h16.52v8.34h-24.86zM267.14 63.56l13-58.22h6.95l13 58.22h-8.34l-2.45-12.51h-11.37l-2.45 12.51zm20.61-20.36l-4.09-21.1h-.17l-4.08 21.1zM306.31 63.56V5.34h12.18a17.05 17.05 0 016.83 1.23 12.83 12.83 0 014.62 3.27 12.21 12.21 0 012.57 4.7 19.48 19.48 0 01.78 5.52v2.12a18.24 18.24 0 01-.37 4 9.52 9.52 0 01-1.1 2.86 11.53 11.53 0 01-4.25 3.96 9 9 0 014.33 4.09 16.14 16.14 0 011.39 7.35v3.27q0 7.7-3.72 11.78t-11.9 4.09zm8.34-50.37v16h3.76q4.17 0 5.6-2.09a10.79 10.79 0 001.43-6.1q0-3.93-1.59-5.89t-5.77-2zm0 23.38v18.65h3.6a8.78 8.78 0 004-.74 5.1 5.1 0 002.17-2 7.72 7.72 0 00.9-3.11c.11-1.2.16-2.51.16-3.92a26.85 26.85 0 00-.24-3.85 7 7 0 00-1-2.78 4.67 4.67 0 00-2.2-1.67 10.4 10.4 0 00-3.68-.54zM368.12 22.1h-8.34v-1.88a8.85 8.85 0 00-1.35-4.94c-.9-1.4-2.41-2.09-4.54-2.09a5.26 5.26 0 00-2.77.65 5.41 5.41 0 00-1.72 1.64 6.77 6.77 0 00-.9 2.41 16.08 16.08 0 00-.25 2.82 25.15 25.15 0 00.13 2.86 5.34 5.34 0 00.61 2.05 4.47 4.47 0 001.43 1.55 13.29 13.29 0 002.58 1.31l6.37 2.52a15.81 15.81 0 014.5 2.5 10.79 10.79 0 012.7 3.31 15.5 15.5 0 011.23 4.46 45.57 45.57 0 01.32 5.68 30.06 30.06 0 01-.73 6.83 14.33 14.33 0 01-2.39 5.36 11.8 11.8 0 01-4.5 3.6 15.94 15.94 0 01-6.79 1.31 14.79 14.79 0 01-5.62-1.05 13.21 13.21 0 01-4.5-2.94 14.24 14.24 0 01-3-4.37 13.23 13.23 0 01-1.11-5.44v-3.13h8.34v2.62a6.81 6.81 0 001.35 4.13c.9 1.23 2.42 1.84 4.54 1.84a7.43 7.43 0 003.29-.61 4.4 4.4 0 001.84-1.76 6.42 6.42 0 00.78-2.74c.08-1.06.12-2.25.12-3.56a35 35 0 00-.16-3.76 6.43 6.43 0 00-.66-2.37 4.52 4.52 0 00-1.51-1.47 20.64 20.64 0 00-2.41-1.23l-6-2.45c-3.6-1.48-6-3.42-7.24-5.85a20.17 20.17 0 01-1.84-9.12 21.1 21.1 0 01.9-6.21 14.18 14.18 0 012.7-5.07 12.27 12.27 0 014.38-3.39 14.5 14.5 0 016.33-1.27A13.85 13.85 0 01359.9 6a14.78 14.78 0 014.46 3 12.62 12.62 0 013.76 9z" class="cls-2"/><path d="M85.99 0h5.27v10.41h-5.27z" class="cls-1"/></g></g></svg>