<svg xmlns="http://www.w3.org/2000/svg" viewBox="0 0 368.12 64.05"><defs><style>.cls-1{fill:#231f20;}.cls-2{fill:#d0d2d3;}</style></defs><g id="Layer_2" data-name="Layer 2"><g id="Wireframe"><path class="cls-1" d="M0,34.39V5.21H10.39V34.39ZM0,63.58V44.12H10.39V63.58ZM20.77,24.67V5.21H31.16V24.67Zm0,38.91V34.39H31.16V63.58Z"/><path class="cls-1" d="M82.52,22.1H74.18V20.22a8.85,8.85,0,0,0-1.35-4.94c-.9-1.4-2.41-2.09-4.54-2.09a5.32,5.32,0,0,0-2.78.65,5.51,5.51,0,0,0-1.72,1.64,7.17,7.17,0,0,0-.9,2.41,16.09,16.09,0,0,0-.24,2.82,28.1,28.1,0,0,0,.12,2.86,5.52,5.52,0,0,0,.61,2.05,4.57,4.57,0,0,0,1.43,1.55,13.29,13.29,0,0,0,2.58,1.31L73.77,31a16.09,16.09,0,0,1,4.5,2.5A10.75,10.75,0,0,1,81,36.82a15.5,15.5,0,0,1,1.23,4.46A43.59,43.59,0,0,1,82.52,47a30,30,0,0,1-.74,6.83,14.33,14.33,0,0,1-2.37,5.35,11.65,11.65,0,0,1-4.5,3.6,15.86,15.86,0,0,1-6.78,1.31A14.87,14.87,0,0,1,62.48,63,13.16,13.16,0,0,1,58,60a14.27,14.27,0,0,1-3-4.37,13.39,13.39,0,0,1-1.1-5.44V47.12h8.34v2.62a6.81,6.81,0,0,0,1.35,4.13q1.35,1.85,4.54,1.84a7.46,7.46,0,0,0,3.31-.61,4.46,4.46,0,0,0,1.84-1.76,6.56,6.56,0,0,0,.77-2.74c.09-1.06.13-2.25.13-3.56A34.66,34.66,0,0,0,74,43.28a6.44,6.44,0,0,0-.65-2.37,4.61,4.61,0,0,0-1.51-1.47,20.14,20.14,0,0,0-2.5-1.23l-6-2.45c-3.59-1.48-6-3.42-7.23-5.85a20,20,0,0,1-1.84-9.12,21.1,21.1,0,0,1,.9-6.21,14.18,14.18,0,0,1,2.7-5.07,12.23,12.23,0,0,1,4.37-3.39,14.52,14.52,0,0,1,6.34-1.27A13.89,13.89,0,0,1,74.3,6a14.9,14.9,0,0,1,4.46,3,12.66,12.66,0,0,1,3.76,9Z"/><path class="cls-1" d="M88.24,63.56l13-58.22h7l13,58.22h-8.34L110.4,51.05H99L96.58,63.56Zm20.6-20.36-4.08-21.1h-.17L100.5,43.2Z"/><path class="cls-1" d="M127.49,63.56V5.34h12.18a17.05,17.05,0,0,1,6.83,1.23,12.83,12.83,0,0,1,4.62,3.27,12.21,12.21,0,0,1,2.57,4.7,19.48,19.48,0,0,1,.78,5.52v2.12a18.24,18.24,0,0,1-.37,4,9.52,9.52,0,0,1-1.1,2.86A11.53,11.53,0,0,1,148.75,33a9,9,0,0,1,4.33,4.09,16.14,16.14,0,0,1,1.39,7.35v3.27q0,7.7-3.72,11.78t-11.9,4.09Zm8.34-50.37v16h3.76q4.17,0,5.6-2.09A10.79,10.79,0,0,0,146.62,21q0-3.93-1.59-5.89t-5.77-2Zm0,23.38V55.22h3.6a8.78,8.78,0,0,0,4-.74,5.1,5.1,0,0,0,2.17-2,7.72,7.72,0,0,0,.9-3.11c.11-1.2.16-2.51.16-3.92a26.85,26.85,0,0,0-.24-3.85,7,7,0,0,0-1-2.78,4.67,4.67,0,0,0-2.2-1.67,10.4,10.4,0,0,0-3.68-.54Z"/><polygon class="cls-1" points="160.68 63.56 160.68 5.34 169.02 5.34 169.02 55.22 185.54 55.22 185.54 63.56 160.68 63.56"/><polygon class="cls-1" points="191.92 63.56 191.92 5.34 216.77 5.34 216.77 13.19 200.26 13.19 200.26 30.28 214.65 30.28 214.65 38.13 200.26 38.13 200.26 55.22 216.77 55.22 216.77 63.56 191.92 63.56"/><polygon class="cls-2" points="235.74 63.56 235.74 5.34 244.08 5.34 244.08 55.22 260.6 55.22 260.6 63.56 235.74 63.56"/><path class="cls-2" d="M267.14,63.56l13-58.22h6.95l13,58.22h-8.34L289.3,51.05H277.93l-2.45,12.51ZM287.75,43.2l-4.09-21.1h-.17l-4.08,21.1Z"/><path class="cls-2" d="M306.31,63.56V5.34h12.18a17.05,17.05,0,0,1,6.83,1.23,12.83,12.83,0,0,1,4.62,3.27,12.21,12.21,0,0,1,2.57,4.7,19.48,19.48,0,0,1,.78,5.52v2.12a18.24,18.24,0,0,1-.37,4,9.52,9.52,0,0,1-1.1,2.86A11.53,11.53,0,0,1,327.57,33a9,9,0,0,1,4.33,4.09,16.14,16.14,0,0,1,1.39,7.35v3.27q0,7.7-3.72,11.78t-11.9,4.09Zm8.34-50.37v16h3.76q4.17,0,5.6-2.09A10.79,10.79,0,0,0,325.44,21q0-3.93-1.59-5.89t-5.77-2Zm0,23.38V55.22h3.6a8.78,8.78,0,0,0,4-.74,5.1,5.1,0,0,0,2.17-2,7.72,7.72,0,0,0,.9-3.11c.11-1.2.16-2.51.16-3.92a26.85,26.85,0,0,0-.24-3.85,7,7,0,0,0-1-2.78,4.67,4.67,0,0,0-2.2-1.67,10.4,10.4,0,0,0-3.68-.54Z"/><path class="cls-2" d="M368.12,22.1h-8.34V20.22a8.85,8.85,0,0,0-1.35-4.94c-.9-1.4-2.41-2.09-4.54-2.09a5.26,5.26,0,0,0-2.77.65,5.41,5.41,0,0,0-1.72,1.64,6.77,6.77,0,0,0-.9,2.41,16.08,16.08,0,0,0-.25,2.82,25.15,25.15,0,0,0,.13,2.86,5.34,5.34,0,0,0,.61,2.05,4.47,4.47,0,0,0,1.43,1.55A13.29,13.29,0,0,0,353,28.48L359.37,31a15.81,15.81,0,0,1,4.5,2.5,10.79,10.79,0,0,1,2.7,3.31,15.5,15.5,0,0,1,1.23,4.46,45.57,45.57,0,0,1,.32,5.68,30.06,30.06,0,0,1-.73,6.83A14.33,14.33,0,0,1,365,59.14a11.8,11.8,0,0,1-4.5,3.6,15.94,15.94,0,0,1-6.79,1.31A14.79,14.79,0,0,1,348.09,63a13.21,13.21,0,0,1-4.5-2.94,14.24,14.24,0,0,1-3-4.37,13.23,13.23,0,0,1-1.11-5.44V47.12h8.34v2.62a6.81,6.81,0,0,0,1.35,4.13c.9,1.23,2.42,1.84,4.54,1.84A7.43,7.43,0,0,0,357,55.1a4.4,4.4,0,0,0,1.84-1.76,6.42,6.42,0,0,0,.78-2.74c.08-1.06.12-2.25.12-3.56a35,35,0,0,0-.16-3.76,6.43,6.43,0,0,0-.66-2.37,4.52,4.52,0,0,0-1.51-1.47A20.64,20.64,0,0,0,355,38.21l-6-2.45c-3.6-1.48-6-3.42-7.24-5.85a20.17,20.17,0,0,1-1.84-9.12,21.1,21.1,0,0,1,.9-6.21,14.18,14.18,0,0,1,2.7-5.07,12.27,12.27,0,0,1,4.38-3.39,14.5,14.5,0,0,1,6.33-1.27A13.85,13.85,0,0,1,359.9,6a14.78,14.78,0,0,1,4.46,3,12.62,12.62,0,0,1,3.76,9Z"/><rect class="cls-1" x="85.99" width="5.27" height="10.41"/></g></g></svg>