<svg xmlns="http://www.w3.org/2000/svg" width="34.545" height="33.641" viewBox="0 0 34.545 33.641"><defs><style>.a{fill:#101010;}</style></defs><g transform="translate(-119.366 -54.87)"><g transform="translate(119.366 54.87)"><path class="a" d="M133.924,83.99a14.56,14.56,0,1,1,14.558-14.558A14.576,14.576,0,0,1,133.924,83.99Zm0-26.233A11.673,11.673,0,1,0,145.6,69.432,11.688,11.688,0,0,0,133.924,57.757Z" transform="translate(-119.366 -54.87)"/><path class="a" d="M136.271,72.839a1.432,1.432,0,0,1-1.009-.41l-8.443-8.295a1.442,1.442,0,1,1,2.021-2.057l8.443,8.291a1.442,1.442,0,0,1-1.012,2.471Z" transform="translate(-103.169 -39.198)"/></g></g></svg>