<svg xmlns="http://www.w3.org/2000/svg" xmlns:xlink="http://www.w3.org/1999/xlink" width="19" height="19" viewBox="0 0 19 19"><title>Group 3</title><defs><path id="a" d="M0 0h18.633v18.761H0z"/></defs><g fill="none" fill-rule="evenodd"><mask id="b" fill="#fff"><use xlink:href="#a"/></mask><path fill="#B2B2B2" d="M7.96 13.759a5.762 5.762 0 0 1-4.1-1.698 5.762 5.762 0 0 1-1.697-4.1 5.76 5.76 0 0 1 1.698-4.1 5.763 5.763 0 0 1 4.1-1.699c1.549 0 3.005.604 4.1 1.699a5.76 5.76 0 0 1 1.698 4.1 5.762 5.762 0 0 1-1.698 4.1 5.76 5.76 0 0 1-4.1 1.698m10.356 3.156l-4.075-4.074a7.895 7.895 0 0 0 1.68-4.88 7.913 7.913 0 0 0-2.332-5.629A7.905 7.905 0 0 0 7.96 0a7.908 7.908 0 0 0-5.628 2.332A7.913 7.913 0 0 0 0 7.961a7.91 7.91 0 0 0 2.332 5.629 7.913 7.913 0 0 0 5.629 2.332 7.89 7.89 0 0 0 4.733-1.571l4.094 4.093a1.079 1.079 0 0 0 1.529 0 1.082 1.082 0 0 0 0-1.529" mask="url(#b)"/></g></svg>