<svg xmlns="http://www.w3.org/2000/svg" viewBox="0 0 13.74 11.17"><defs><style>.cls-1{fill:#005851;}</style></defs><g id="Layer_2" data-name="Layer 2"><g id="Wireframe"><path class="cls-1" d="M4.32,11.17a8,8,0,0,0,8-8c0-.13,0-.25,0-.37a5.59,5.59,0,0,0,1.41-1.46,5.48,5.48,0,0,1-1.62.45A2.87,2.87,0,0,0,13.36.21a5.77,5.77,0,0,1-1.79.68A2.82,2.82,0,0,0,6.7,2.82a2.73,2.73,0,0,0,.07.64A8,8,0,0,1,1,.52,2.72,2.72,0,0,0,.57,1.93,2.82,2.82,0,0,0,1.83,4.28,2.91,2.91,0,0,1,.55,3.93V4A2.82,2.82,0,0,0,2.81,6.73a2.94,2.94,0,0,1-.74.1,2.33,2.33,0,0,1-.53-.06,2.81,2.81,0,0,0,2.63,2A5.62,5.62,0,0,1,.67,9.94,5,5,0,0,1,0,9.9a8,8,0,0,0,4.32,1.27"/></g></g></svg>