<?xml version="1.0" encoding="utf-8"?>
<!-- Generator: Adobe Illustrator 24.3.0, SVG Export Plug-In . SVG Version: 6.00 Build 0)  -->
<svg version="1.1" id="Layer_1" xmlns="http://www.w3.org/2000/svg" xmlns:xlink="http://www.w3.org/1999/xlink" x="0px" y="0px"
	 viewBox="0 0 13.5 11" style="enable-background:new 0 0 13.5 11;" xml:space="preserve">
<g id="Layer_2_1_">
	<g id="artwork">
		<path d="M4.2,11c4.3,0,7.9-3.5,7.9-7.8c0,0,0-0.1,0-0.1c0-0.1,0-0.2,0-0.4c0.5-0.4,1-0.9,1.4-1.5c-0.5,0.2-1,0.4-1.6,0.4
			c0.6-0.3,1-0.9,1.2-1.5c-0.5,0.3-1.1,0.6-1.8,0.7c-1-1.1-2.8-1.2-3.9-0.1C6.9,1.3,6.6,2,6.6,2.8c0,0.2,0,0.4,0.1,0.6
			C4.4,3.3,2.3,2.2,0.9,0.5C0.7,0.9,0.6,1.4,0.6,1.9c0,0.9,0.5,1.8,1.2,2.3c-0.4,0-0.9-0.1-1.3-0.4l0,0c0,1.3,0.9,2.5,2.2,2.8
			C2.5,6.7,2.3,6.7,2,6.7c-0.2,0-0.4,0-0.5,0c0.4,1.1,1.4,1.9,2.6,1.9c-1,0.8-2.2,1.2-3.4,1.2c-0.2,0-0.4,0-0.7,0
			C1.3,10.6,2.7,11,4.2,11"/>
	</g>
</g>
</svg>
