<svg xmlns="http://www.w3.org/2000/svg" viewBox="0 0 13.74 11.17"><defs><style>.cls-1{fill:#005851}</style></defs><g id="Layer_2" data-name="Layer 2"><g id="Wireframe"><path d="M4.32 11.17a8 8 0 0 0 8-8V2.8a5.59 5.59 0 0 0 1.41-1.46 5.48 5.48 0 0 1-1.62.45A2.87 2.87 0 0 0 13.36.21a5.77 5.77 0 0 1-1.79.68A2.82 2.82 0 0 0 6.7 2.82a2.73 2.73 0 0 0 .07.64A8 8 0 0 1 1 .52a2.72 2.72 0 0 0-.43 1.41 2.82 2.82 0 0 0 1.26 2.35 2.91 2.91 0 0 1-1.28-.35V4a2.82 2.82 0 0 0 2.26 2.73 2.94 2.94 0 0 1-.74.1 2.33 2.33 0 0 1-.53-.06 2.81 2.81 0 0 0 2.63 2 5.62 5.62 0 0 1-3.5 1.17A5 5 0 0 1 0 9.9a8 8 0 0 0 4.32 1.27" class="cls-1"/></g></g></svg>