<svg width="1175" height="218" xmlns="http://www.w3.org/2000/svg"><path d="M56.39 218c22.731 0 40.48-9.964 49.51-28.024l.422-.88c6.13-13.025 6.429-24.37 6.429-25.588v-13.7H81.612v13.7c0 4.982-3.114 27.402-25.222 27.402-21.887 0-25.463-22.279-25.532-27.256l-.001-109.13c0-4.67 3.425-27.09 25.533-27.09s25.222 22.108 25.222 27.09v13.701h31.139l-.003-13.926c-.037-2.064-.596-13.441-6.848-26.242C96.87 9.997 79.121.032 56.39.032c-22.73 0-40.48 9.965-49.51 28.025C.342 41.447.03 53.279.03 54.524l.004 109.284c.05 2.25.667 13.514 6.847 26.168C15.91 208.036 33.659 218 56.39 218zm130.766 0c22.73 0 40.48-9.964 49.51-28.024 6.539-13.39 6.85-25.222 6.85-26.468l-.004-109.283c-.049-2.251-.667-13.515-6.846-26.168-9.03-18.06-26.78-28.025-49.51-28.025-22.731 0-40.48 9.965-49.51 28.025-6.323 12.948-6.823 24.44-6.85 26.31v109.298c.027 1.87.527 13.363 6.85 26.31 9.03 18.06 26.779 28.025 49.51 28.025zm-25.533-54.492V54.524l.004-.301c.14-5.257 3.863-26.789 25.529-26.789 21.887 0 25.158 21.668 25.22 26.936l.002 109.138c0 4.982-3.114 27.402-25.222 27.402s-25.533-22.731-25.533-27.402zM318.108 218c22.731 0 40.48-9.964 49.51-28.024l.422-.88c6.13-13.025 6.429-24.37 6.429-25.588V.032H343.33v163.476c0 4.982-3.113 27.402-25.222 27.402-22.108 0-25.533-22.731-25.533-27.402V.032h-30.827l.004 163.776c.05 2.25.667 13.514 6.847 26.168 9.03 18.06 26.778 28.024 49.51 28.024zM478.518 7.817C465.44.344 451.738.032 450.182.032h-56.36V218h30.826v-95.283h25.672c3.29-.037 56.222-1.532 56.222-61.342 0-30.516-15.57-46.085-28.024-53.558zM463.57 90.956c-6.85 4.048-13.078 4.36-13.39 4.36h-25.533V27.433l25.695.004c.993.034 6.418.388 12.605 4.044 8.408 4.982 12.456 14.635 12.456 29.893 0 14.635-3.737 24.599-11.833 29.581zm91.843 99.954V.032h-30.827V218h85.319v-27.09h-54.492zM726.971 27.434V.032h-99.02V218h99.02v-27.09h-68.193v-68.193h50.755V95.315h-50.755V27.434h68.193zM745.016.032V218l56.669-.004c2.39-.047 15.02-.646 27.093-6.535 18.683-9.342 28.958-26.468 28.958-47.953L857.734 54.3c-.037-2.064-.596-13.441-6.848-26.242-9.03-18.06-26.779-28.025-49.51-28.025h-56.36zm30.827 27.402h25.533c22.108 0 25.222 22.108 25.222 27.09v108.984c0 14.324-10.898 27.402-26.467 27.402h-24.288V27.434zM932.142 218c22.73 0 40.48-9.964 49.51-28.024l.422-.88c6.13-13.025 6.428-24.37 6.428-25.588l-.004-109.283c-.05-2.251-.667-13.515-6.846-26.168-9.03-18.06-26.78-28.025-49.51-28.025-22.731 0-40.48 9.965-49.51 28.025-6.324 12.948-6.823 24.44-6.85 26.31v109.366c.039 2.064.598 13.442 6.85 26.243 9.03 18.06 26.779 28.024 49.51 28.024zm-25.534-54.492V54.524l.005-.301c.14-5.257 3.863-26.789 25.529-26.789 22.108 0 25.222 22.108 25.222 27.09v108.984c0 4.982-3.114 27.402-25.222 27.402s-25.534-22.731-25.534-27.402zM1132.782.032h41.725V218h-31.138V84.728c-11.21 44.84-22.42 88.433-33.318 133.272h-38.612l-33.318-133.272V218h-30.827V.032h41.726l41.725 167.835L1132.782.032z" fill="#FFF"/></svg>