<svg width="16" height="16" xmlns="http://www.w3.org/2000/svg" xmlns:xlink="http://www.w3.org/1999/xlink"><defs><path id="a" d="M0 .506h15.495V16H0z"/></defs><g fill="none" fill-rule="evenodd"><g transform="translate(0 -.506)"><mask id="b" fill="#fff"><use xlink:href="#a"/></mask><path d="M14.008 10.656a3.857 3.857 0 01-3.857 3.857H5.344a3.857 3.857 0 01-3.858-3.857V5.85a3.858 3.858 0 013.857-3.857h4.806a3.858 3.858 0 013.857 3.857v4.806zM10.72.506H4.773A4.773 4.773 0 000 5.28v5.946A4.773 4.773 0 004.774 16h5.946a4.773 4.773 0 004.774-4.774V5.28A4.773 4.773 0 0010.72.506z" fill="#FFF" mask="url(#b)"/></g><path d="M7.955 10.23a2.456 2.456 0 110-4.912 2.456 2.456 0 010 4.911m0-6.536a4.081 4.081 0 10-.002 8.163 4.081 4.081 0 00.002-8.163m4.837-.063a1.037 1.037 0 11-2.075-.001 1.037 1.037 0 012.075 0" fill="#FFF"/></g></svg>