<svg xmlns="http://www.w3.org/2000/svg" viewBox="0 0 155.09 25.01"><g data-name="Layer 2"><path d="M0 12.51V1h4.09v11.51zM0 24v-7.67h4.09V24zM8.18 8.68V1h4.08v7.68zm0 15.32V12.51h4.08V24zM34.41 7.29h-3.52V6.5a3.74 3.74 0 00-.57-2.09 2.11 2.11 0 00-1.92-.89 2.25 2.25 0 00-1.17.28 2.54 2.54 0 00-.73.69 3 3 0 00-.38 1A6.59 6.59 0 0026 6.7c0 .49 0 .89.05 1.21a2.45 2.45 0 00.26.87 2 2 0 00.6.65A5.22 5.22 0 0028 10l2.7 1.08a6.9 6.9 0 011.9 1 4.63 4.63 0 011.14 1.4 6.9 6.9 0 01.52 1.88 19.07 19.07 0 01.13 2.4 12.56 12.56 0 01-.31 2.89 6 6 0 01-1 2.26 4.93 4.93 0 01-1.9 1.52 6.68 6.68 0 01-2.87.55 6.26 6.26 0 01-2.31-.42 5.64 5.64 0 01-1.9-1.24 6 6 0 01-1.26-1.85 5.63 5.63 0 01-.47-2.3v-1.31h3.53V19a2.88 2.88 0 00.57 1.74 2.21 2.21 0 001.91.78 3.12 3.12 0 001.4-.26 1.8 1.8 0 00.78-.74 2.87 2.87 0 00.33-1.16c0-.45.05-.95.05-1.5a13.79 13.79 0 00-.07-1.59 2.71 2.71 0 00-.28-1 2 2 0 00-.63-.63 8.21 8.21 0 00-1.06-.51l-2.52-1a5.61 5.61 0 01-3.06-2.47 8.49 8.49 0 01-.78-3.85 9.09 9.09 0 01.38-2.63A6.18 6.18 0 0124 2 5.17 5.17 0 0125.86.54 6.13 6.13 0 0128.54 0a5.85 5.85 0 012.4.48 6.26 6.26 0 011.88 1.28 5.34 5.34 0 011.59 3.8zm2.42 17.52L42.32.21h2.94l5.5 24.6h-3.53l-1-5.29h-4.8l-1 5.29zm8.71-8.61l-1.73-8.91h-.07L42 16.2zm7.88 8.61V.21h5.14a7.18 7.18 0 012.89.52 5.38 5.38 0 011.95 1.38 5.13 5.13 0 011.09 2 8.27 8.27 0 01.33 2.34v.89A8.11 8.11 0 0164.66 9a4 4 0 01-.47 1.21 4.88 4.88 0 01-1.79 1.65 3.85 3.85 0 011.83 1.73 6.89 6.89 0 01.59 3.11v1.4a7.14 7.14 0 01-1.58 5c-1 1.15-2.72 1.73-5 1.73zm3.52-21.29v6.78h1.59a2.68 2.68 0 002.36-.89 4.45 4.45 0 00.61-2.57 3.91 3.91 0 00-.67-2.49 3 3 0 00-2.44-.83zm0 9.88v7.88h1.52a3.73 3.73 0 001.68-.28 2.16 2.16 0 00.91-.86 3.3 3.3 0 00.38-1.32c0-.5.07-1.05.07-1.65a12.59 12.59 0 00-.1-1.63 2.9 2.9 0 00-.4-1.2 2 2 0 00-.93-.71 4.43 4.43 0 00-1.56-.23zm10.5 11.41V.21H71v21.07h7v3.53zm13.2 0V.21h10.5v3.31h-7v7.22h6.08v3.32h-6.06v7.22h7v3.53zm18.52 0V.21h3.52v21.07h7v3.53zm13.26 0l5.5-24.6h2.93l5.5 24.6h-3.53l-1-5.29H117l-1 5.29zm8.71-8.61l-1.73-8.91h-.07l-1.72 8.91zm7.87 8.61V.21h5.15a7.09 7.09 0 012.85.52 5.34 5.34 0 012 1.38 5.11 5.11 0 011.08 2 8.27 8.27 0 01.33 2.34v.89a8.18 8.18 0 01-.15 1.7 4.24 4.24 0 01-.47 1.21 4.83 4.83 0 01-1.8 1.65 3.92 3.92 0 011.84 1.73 6.9 6.9 0 01.58 3.11v1.36a7.14 7.14 0 01-1.57 5c-1.05 1.15-2.72 1.73-5 1.73zm3.5-21.29v6.78h1.58a2.68 2.68 0 002.37-.89 4.53 4.53 0 00.61-2.57 3.91 3.91 0 00-.68-2.49 3 3 0 00-2.38-.83zm0 9.88v7.88h1.5a3.66 3.66 0 001.67-.31 2.19 2.19 0 00.92-.86 3.46 3.46 0 00.38-1.32c0-.5.07-1.05.07-1.65a10.9 10.9 0 00-.11-1.63 2.9 2.9 0 00-.41-1.17 2 2 0 00-.93-.71 4.51 4.51 0 00-1.56-.23zm22.59-6.11h-3.52V6.5a3.74 3.74 0 00-.57-2.09 2.11 2.11 0 00-1.92-.89 2.26 2.26 0 00-1.18.28 2.38 2.38 0 00-.72.69 2.84 2.84 0 00-.38 1 6.58 6.58 0 00-.11 1.19 10 10 0 00.06 1.21 2.26 2.26 0 00.26.87 1.85 1.85 0 00.6.65 5 5 0 001.09.55l2.69 1.08a6.62 6.62 0 011.9 1 4.35 4.35 0 011.14 1.4 6.25 6.25 0 01.52 1.88 18.93 18.93 0 01.14 2.4 12.56 12.56 0 01-.31 2.89 6.15 6.15 0 01-1 2.26 5 5 0 01-1.9 1.52A6.71 6.71 0 01149 25a6.23 6.23 0 01-2.38-.45 5.64 5.64 0 01-1.9-1.24 6.15 6.15 0 01-1.27-1.85 5.63 5.63 0 01-.46-2.3v-1.3h3.52V19a2.88 2.88 0 00.57 1.74 2.22 2.22 0 001.92.78 3.15 3.15 0 001.4-.26 1.92 1.92 0 00.78-.74 2.72 2.72 0 00.32-1.16q.06-.67.06-1.5c0-.65 0-1.18-.07-1.59a2.71 2.71 0 00-.28-1 1.93 1.93 0 00-.64-.63 7.41 7.41 0 00-1.05-.51l-2.52-1a5.61 5.61 0 01-3-2.54 8.49 8.49 0 01-.78-3.85 9.09 9.09 0 01.38-2.63A5.86 5.86 0 01144.69 2a5.09 5.09 0 011.85-1.46 6.13 6.13 0 012.68-.54 5.91 5.91 0 012.4.48 6.38 6.38 0 011.88 1.28 5.34 5.34 0 011.59 3.8zM35.88.17h2.23v4.4h-2.23z" fill="#fff" data-name="Layer 1"/></g></svg>