<svg width="15" height="12" xmlns="http://www.w3.org/2000/svg" xmlns:xlink="http://www.w3.org/1999/xlink"><defs><path id="a" d="M0 0h14.308v11.629H0z"/></defs><g fill="none" fill-rule="evenodd"><mask id="b" fill="#fff"><use xlink:href="#a"/></mask><path d="M4.5 11.629c5.4 0 8.353-4.474 8.353-8.354 0-.125-.002-.252-.01-.378a5.96 5.96 0 001.465-1.52 5.923 5.923 0 01-1.685.462 2.957 2.957 0 001.29-1.625 5.897 5.897 0 01-1.864.714 2.935 2.935 0 00-5.077 2.007c0 .23.026.454.075.67A8.34 8.34 0 01.996.538a2.937 2.937 0 00.909 3.917 2.894 2.894 0 01-1.33-.367v.037a2.936 2.936 0 002.354 2.878 2.932 2.932 0 01-1.325.05 2.94 2.94 0 002.742 2.04A5.884 5.884 0 010 10.31a8.308 8.308 0 004.5 1.32" fill="#FFF" mask="url(#b)"/></g></svg>