<svg id="Component_1_1" data-name="Component 1 – 1" xmlns="http://www.w3.org/2000/svg" xmlns:xlink="http://www.w3.org/1999/xlink" width="228.577" height="103.914" viewBox="0 0 228.577 103.914">
  <defs>
    <clipPath id="clip-path">
      <path id="Path_18" data-name="Path 18" d="M0-71.684H228.577V-175.6H0Z" transform="translate(0 175.597)" fill="none"/>
    </clipPath>
  </defs>
  <g id="Group_16" data-name="Group 16" transform="translate(0 0.001)" clip-path="url(#clip-path)">
    <g id="Group_15" data-name="Group 15" transform="translate(0 60.85)">
      <path id="Path_17" data-name="Path 17" d="M-14.362-8.658h-6.067v-1.368a6.48,6.48,0,0,0-.981-3.6,3.631,3.631,0,0,0-3.3-1.517,3.818,3.818,0,0,0-2.021.476,3.992,3.992,0,0,0-1.25,1.189,5.042,5.042,0,0,0-.654,1.755,11.469,11.469,0,0,0-.178,2.053,20.035,20.035,0,0,0,.089,2.082A3.952,3.952,0,0,0-28.28-6.1a3.3,3.3,0,0,0,1.041,1.13,9.456,9.456,0,0,0,1.874.952l4.639,1.844A11.525,11.525,0,0,1-17.455-.36a7.861,7.861,0,0,1,1.963,2.409A11.278,11.278,0,0,1-14.6,5.29a32.3,32.3,0,0,1,.238,4.134,21.79,21.79,0,0,1-.536,4.966,10.44,10.44,0,0,1-1.725,3.9A8.557,8.557,0,0,1-19.893,20.9a11.551,11.551,0,0,1-4.937.952,10.81,10.81,0,0,1-4.1-.774,9.721,9.721,0,0,1-3.271-2.141,10.384,10.384,0,0,1-2.171-3.183,9.655,9.655,0,0,1-.8-3.955V9.543h6.067v1.9a4.958,4.958,0,0,0,.982,3,3.822,3.822,0,0,0,3.3,1.338,5.323,5.323,0,0,0,2.41-.446,3.21,3.21,0,0,0,1.338-1.279,4.694,4.694,0,0,0,.565-1.992q.09-1.159.089-2.588a25.823,25.823,0,0,0-.118-2.736,4.714,4.714,0,0,0-.476-1.724,3.348,3.348,0,0,0-1.1-1.071,14.322,14.322,0,0,0-1.814-.892L-28.28,1.275q-3.926-1.606-5.264-4.252a14.631,14.631,0,0,1-1.338-6.632,15.374,15.374,0,0,1,.654-4.521,10.281,10.281,0,0,1,1.963-3.688,9.009,9.009,0,0,1,3.182-2.468,10.625,10.625,0,0,1,4.61-.923,10.083,10.083,0,0,1,4.134.833,10.687,10.687,0,0,1,3.242,2.2,9.2,9.2,0,0,1,2.736,6.542Z" transform="translate(35.18 21.208)" fill="#fff"/>
    </g>
  </g>
  <g id="Group_17" data-name="Group 17" transform="translate(24.981 61.208)">
    <path id="Path_19" data-name="Path 19" d="M-6.524,0l-9.457,42.349h6.067l1.784-9.1H.138l1.785,9.1H7.989L-1.468,0Zm2.438,12.193h.12L-.993,27.539H-7.059Z" transform="translate(15.981)" fill="#fff"/>
  </g>
  <g id="Group_19" data-name="Group 19" transform="translate(0 0.001)" clip-path="url(#clip-path)">
    <g id="Group_18" data-name="Group 18" transform="translate(53.531 61.207)">
      <path id="Path_20" data-name="Path 20" d="M0-29.214V-71.563H8.862a12.415,12.415,0,0,1,4.966.892,9.362,9.362,0,0,1,3.361,2.379,8.911,8.911,0,0,1,1.874,3.42,14.232,14.232,0,0,1,.566,4.016v1.546A13.483,13.483,0,0,1,19.36-56.4a7.014,7.014,0,0,1-.8,2.082,8.331,8.331,0,0,1-3.093,2.855,6.589,6.589,0,0,1,3.153,2.975,11.808,11.808,0,0,1,1.011,5.353v2.379q0,5.592-2.707,8.565T8.267-29.214Zm6.067-36.64V-54.2H8.8q3.033,0,4.074-1.517a7.828,7.828,0,0,0,1.041-4.431,6.683,6.683,0,0,0-1.16-4.282q-1.16-1.428-4.193-1.429Zm0,17.012v13.562H8.684a6.381,6.381,0,0,0,2.885-.536A3.69,3.69,0,0,0,13.145-37.3a5.61,5.61,0,0,0,.654-2.261q.118-1.308.119-2.855a19.019,19.019,0,0,0-.179-2.8,5.106,5.106,0,0,0-.713-2.023,3.434,3.434,0,0,0-1.606-1.218,7.66,7.66,0,0,0-2.677-.387Z" transform="translate(0 71.563)" fill="#fff"/>
    </g>
  </g>
  <g id="Group_20" data-name="Group 20" transform="translate(77.679 61.208)">
    <path id="Path_22" data-name="Path 22" d="M0,0V42.349H18.081V36.283H6.067V0Z" fill="#fff"/>
  </g>
  <g id="Group_21" data-name="Group 21" transform="translate(100.4 61.208)">
    <path id="Path_23" data-name="Path 23" d="M0,0V42.349H18.081V36.283H6.067V23.851H16.535V18.14H6.067V5.709H18.081V0Z" fill="#fff"/>
  </g>
  <g id="Group_22" data-name="Group 22" transform="translate(132.28 61.208)">
    <path id="Path_24" data-name="Path 24" d="M0,0V42.349H18.082V36.283H6.067V0Z" fill="#fff"/>
  </g>
  <g id="Group_23" data-name="Group 23" transform="translate(155.121 61.208)">
    <path id="Path_25" data-name="Path 25" d="M-6.524,0-15.98,42.349h6.066l1.784-9.1H.139l1.784,9.1H7.99L-1.468,0Zm2.439,12.193h.119L-.992,27.539H-7.058Z" transform="translate(15.98)" fill="#fff"/>
  </g>
  <g id="Group_26" data-name="Group 26" transform="translate(0 0.001)" clip-path="url(#clip-path)">
    <g id="Group_24" data-name="Group 24" transform="translate(183.611 61.207)">
      <path id="Path_26" data-name="Path 26" d="M0-29.214V-71.563H8.862a12.415,12.415,0,0,1,4.966.892,9.362,9.362,0,0,1,3.361,2.379,8.911,8.911,0,0,1,1.874,3.42,14.254,14.254,0,0,1,.566,4.016v1.546A13.483,13.483,0,0,1,19.36-56.4a7.03,7.03,0,0,1-.8,2.082,8.331,8.331,0,0,1-3.093,2.855,6.591,6.591,0,0,1,3.153,2.975,11.808,11.808,0,0,1,1.011,5.353v2.379q0,5.592-2.707,8.565T8.267-29.214Zm6.067-36.64V-54.2H8.8q3.034,0,4.074-1.517a7.828,7.828,0,0,0,1.041-4.431,6.683,6.683,0,0,0-1.16-4.282q-1.16-1.428-4.193-1.429Zm0,17.012v13.562H8.684a6.381,6.381,0,0,0,2.885-.536A3.689,3.689,0,0,0,13.144-37.3a5.6,5.6,0,0,0,.654-2.261q.118-1.308.119-2.855a19.1,19.1,0,0,0-.179-2.8,5.106,5.106,0,0,0-.713-2.023,3.434,3.434,0,0,0-1.606-1.218,7.662,7.662,0,0,0-2.677-.387Z" transform="translate(0 71.563)" fill="#fff"/>
    </g>
    <g id="Group_25" data-name="Group 25" transform="translate(207.759 60.85)">
      <path id="Path_27" data-name="Path 27" d="M-14.362-8.658h-6.067v-1.368a6.475,6.475,0,0,0-.981-3.6,3.63,3.63,0,0,0-3.3-1.517,3.818,3.818,0,0,0-2.021.476,3.992,3.992,0,0,0-1.25,1.189,5.03,5.03,0,0,0-.654,1.755,11.468,11.468,0,0,0-.179,2.053,20.2,20.2,0,0,0,.089,2.082A3.963,3.963,0,0,0-28.281-6.1,3.312,3.312,0,0,0-27.24-4.97a9.48,9.48,0,0,0,1.874.952l4.639,1.844A11.534,11.534,0,0,1-17.455-.36a7.861,7.861,0,0,1,1.963,2.409A11.278,11.278,0,0,1-14.6,5.29a32.3,32.3,0,0,1,.238,4.134,21.79,21.79,0,0,1-.536,4.966,10.449,10.449,0,0,1-1.725,3.9A8.557,8.557,0,0,1-19.893,20.9a11.553,11.553,0,0,1-4.937.952,10.81,10.81,0,0,1-4.1-.774,9.721,9.721,0,0,1-3.271-2.141,10.4,10.4,0,0,1-2.172-3.183,9.665,9.665,0,0,1-.8-3.955V9.543h6.067v1.9a4.958,4.958,0,0,0,.982,3,3.822,3.822,0,0,0,3.3,1.338,5.323,5.323,0,0,0,2.41-.446,3.205,3.205,0,0,0,1.337-1.279,4.686,4.686,0,0,0,.566-1.992q.09-1.159.089-2.588a25.823,25.823,0,0,0-.118-2.736,4.714,4.714,0,0,0-.476-1.724,3.344,3.344,0,0,0-1.1-1.071,14.269,14.269,0,0,0-1.814-.892l-4.342-1.785q-3.925-1.606-5.264-4.252a14.623,14.623,0,0,1-1.338-6.632,15.374,15.374,0,0,1,.654-4.521,10.281,10.281,0,0,1,1.963-3.688,9.009,9.009,0,0,1,3.182-2.468,10.622,10.622,0,0,1,4.609-.923,10.079,10.079,0,0,1,4.134.833,10.689,10.689,0,0,1,3.243,2.2,9.2,9.2,0,0,1,2.736,6.542Z" transform="translate(35.18 21.208)" fill="#fff"/>
    </g>
  </g>
  <path id="Path_29" data-name="Path 29" d="M39.443-72.265h3.836v7.571H39.443Z" transform="translate(-16.102 133.414)" fill="#fff"/>
  <path id="Path_30" data-name="Path 30" d="M189.091-161.445h7.555V-175.6h-7.555Zm0-14.152-15.113,21.229h7.556V-175.6h-7.556Zm0-21.229,15.113,42.457h7.555v-21.229h-7.555Zm0-21.229M173.978-133.14h7.556v-14.152h-7.556Z" transform="translate(-71.023 175.598)" fill="#fff"/>
</svg>
